<?xml version="1.0" encoding="UTF-8"?>
<svg id="Layer_2" data-name="Layer 2" xmlns="http://www.w3.org/2000/svg" version="1.1" viewBox="0 0 100 100">
  <defs>
    <style>
      .cls-1 {
        fill: #000;
        stroke-width: 0px;
      }
    </style>
  </defs>
  <path class="cls-1" d="M50,1.1C24.1,1.1,2.9,21.2,1.2,46.8c8.8,3.6,17.5,7.2,26.3,10.8h0c2.2-1.5,4.8-2.4,7.7-2.4l11.5-15.7c0-.4,0-.8,0-1.3,0-10.3,8.4-18.7,18.7-18.7s18.7,8.4,18.7,18.7-8.4,18.7-18.7,18.7-.4,0-.7,0l-16.1,11.8c0,7.4-6,13.4-13.4,13.4s-11.8-4.5-13.1-10.6h0c-6.1-1.9-12.3-3.8-18.4-5.8,6.5,19.3,24.8,33.3,46.3,33.3s48.9-21.9,48.9-48.9S77,1.1,50,1.1Z"/>
</svg>