<?xml version="1.0" encoding="UTF-8"?><svg id="Layer_2" xmlns="http://www.w3.org/2000/svg" viewBox="0 0 100 100"><defs><style>.cls-1{fill:#6d9886;}</style></defs><path class="cls-1" d="M50,1.08C24.07,1.08,2.87,21.25,1.2,46.75c8.76,3.6,17.52,7.2,26.28,10.8h0c2.18-1.52,4.83-2.43,7.69-2.43l11.54-15.74c-.03-.43-.06-.85-.06-1.28,0-10.34,8.38-18.72,18.72-18.72s18.72,8.38,18.72,18.72-8.38,18.72-18.72,18.72c-.22,0-.43-.03-.65-.03l-16.12,11.78c0,7.42-6.02,13.43-13.43,13.43-6.44,0-11.81-4.53-13.12-10.58h0c-6.13-1.92-12.26-3.84-18.39-5.76,6.53,19.33,24.81,33.26,46.35,33.26,27.02,0,48.92-21.9,48.92-48.92S77.02,1.08,50,1.08Z"/></svg>