<?xml version="1.0" encoding="UTF-8"?>
<svg id="Layer_2" data-name="Layer 2" xmlns="http://www.w3.org/2000/svg" version="1.1" viewBox="0 0 100 100">
  <defs>
    <style>
      .cls-1 {
        fill: #000;
        stroke-width: 0px;
      }
    </style>
  </defs>
  <path class="cls-1" d="M1.1,80.4s18,2.2,29.9-8.3c-12.4-1.3-17.4-7.8-18.8-13.7,2.6,0,6.8.8,9.6-.7-5.2-.3-16.3-5.3-16-19.2,6.5,1.7,5.1,1.8,8.6,2-4.2-2.7-12.8-11.7-6.4-26.4,6,5.9,23,21.3,40.8,20.1-.8-4,0-26.5,24.1-23.6,6,.9,10.2,5.9,10.2,5.9,0,0,10.2-2,12.7-4.8-.7,2.4-3.9,8.7-7.8,10.4,2.3-.3,6.9-1,9.9-2.6-.3,1.4-5.2,8.5-9.4,10.2.1,2.2,1.2,21.8-12.9,38.6-4.4,5.9-31.4,35-74.5,12h0Z"/>
</svg>