<?xml version="1.0" encoding="UTF-8"?><svg id="Layer_2" xmlns="http://www.w3.org/2000/svg" viewBox="0 0 100 100"><defs><style>.cls-1{fill:#6d9886;}</style></defs><path class="cls-1" d="M1.15,80.43s17.98,2.22,29.85-8.35c-12.39-1.3-17.35-7.83-18.78-13.7,2.61,0,6.78,.78,9.65-.65-5.22-.26-16.3-5.35-16.04-19.17,6.52,1.7,5.09,1.83,8.61,1.96-4.17-2.74-12.78-11.74-6.39-26.35,6,5.87,22.96,21.26,40.83,20.09-.78-4.04,0-26.48,24.13-23.61,6,.91,10.17,5.92,10.17,5.92,0,0,10.17-2.01,12.65-4.75-.65,2.35-3.91,8.74-7.83,10.43,2.35-.26,6.91-1.04,9.91-2.61-.26,1.43-5.22,8.48-9.39,10.17,.13,2.22,1.17,21.78-12.91,38.61-4.43,5.87-31.39,34.96-74.46,12Z"/></svg>