<?xml version="1.0" encoding="UTF-8"?>
<svg id="Layer_2" data-name="Layer 2" xmlns="http://www.w3.org/2000/svg" version="1.1" viewBox="0 0 100 100">
  <defs>
    <style>
      .cls-1 {
        fill: #000;
        stroke-width: 0px;
      }
    </style>
  </defs>
  <path class="cls-1" d="M93.7,25.8c-1-2.1-2.6-3.6-2.6-3.6-1.6-1.6-3.4-2.4-4.6-2.9-13.2-1.6-24.3-2.3-32.7-2.5-8.3-.3-15.7-.2-24.2.8-7.7.8-11.5,1.3-13.7,2.4C0,28.8,5.7,61.9,6.4,66c1.6,9,4.2,13.1,7.6,14.5,1.8.7,4.8,1,7.3,1.3,2.9.3,5.4.3,7.1.2,6.9.2,13.9.3,21.1.2,11.9,0,23.3-.4,34.3-1,2-.4,4.9-1.2,7.5-3.4,3.2-2.8,4.1-6.3,5.3-26.6,0,0,1.1-17.5-2.8-25.4h0ZM40.7,64.1v-28l24.3,13.9-24.3,14.1Z"/>
</svg>