<?xml version="1.0" encoding="UTF-8"?><svg id="Layer_2" xmlns="http://www.w3.org/2000/svg" viewBox="0 0 100 100"><defs><style>.cls-1{fill:#6d9886;}</style></defs><path class="cls-1" d="M93.74,25.84c-1.04-2.13-2.6-3.64-2.6-3.64-1.61-1.65-3.43-2.44-4.64-2.88-13.2-1.64-24.3-2.29-32.67-2.54-8.34-.26-15.71-.17-24.25,.76-7.69,.84-11.54,1.26-13.67,2.44C-.08,28.82,5.67,61.9,6.38,65.99c1.56,8.97,4.2,13.13,7.59,14.49,1.84,.74,4.83,1.02,7.28,1.26,2.93,.28,5.39,.29,7.13,.23,6.86,.19,13.89,.28,21.09,.25,11.86-.04,23.3-.39,34.28-.99,2.04-.39,4.93-1.25,7.46-3.45,3.25-2.81,4.13-6.28,5.35-26.58,0,0,1.05-17.48-2.83-25.38Zm-53.08,38.29v-28.04l24.26,13.91-24.26,14.13Z"/></svg>